<svg xmlns="http://www.w3.org/2000/svg" xmlns:xlink="http://www.w3.org/1999/xlink" width="512" height="512" viewBox="0 0 512 512">
  <defs>
    <linearGradient id="linear-gradient" x1="0.5" y1="1" x2="0.5" gradientUnits="objectBoundingBox">
      <stop offset="0" stop-color="#ffa027"/>
      <stop offset="0.272" stop-color="#ffc151"/>
      <stop offset="0.763" stop-color="#ffc93f"/>
      <stop offset="1" stop-color="#ffe261"/>
    </linearGradient>
  </defs>
  <g id="app_ico_v3" transform="translate(-634.992 -9.744)">
    <ellipse id="Ellipse_73" data-name="Ellipse 73" cx="256" cy="256" rx="256" ry="256" transform="translate(634.992 9.744)" fill="#0e0e0e"/>
    <g id="logo" transform="translate(742.18 116.476)">
      <g id="_12802" data-name="12802" transform="translate(0 0)">
        <ellipse id="Ellipse_82" data-name="Ellipse 82" cx="149.671" cy="149.675" rx="149.671" ry="149.675" fill="url(#linear-gradient)"/>
        <g id="Group_505" data-name="Group 505" transform="translate(162.848 79.419)">
          <path id="Path_319" data-name="Path 319" d="M115.6,56.6A41.176,41.176,0,1,1,74.426,15.425,41.186,41.186,0,0,1,115.6,56.6Z" transform="translate(-33.25 -15.425)" fill="#fff"/>
          <ellipse id="Ellipse_83" data-name="Ellipse 83" cx="19.505" cy="19.505" rx="19.505" ry="19.505" transform="translate(21.672 21.672)" fill="#302c3b"/>
        </g>
        <g id="Group_507" data-name="Group 507" transform="translate(51.053 84.917)">
          <path id="Path_319-2" data-name="Path 319" d="M103.5,50.553A35.127,35.127,0,1,1,68.377,15.425,35.136,35.136,0,0,1,103.5,50.553Z" transform="translate(-33.25 -15.425)" fill="#fff"/>
          <ellipse id="Ellipse_83-2" data-name="Ellipse 83" cx="16.639" cy="16.64" rx="16.639" ry="16.64" transform="translate(18.488 18.488)" fill="#302c3b"/>
        </g>
        <g id="Group_545" data-name="Group 545" transform="translate(105.703 197.915)">
          <path id="Path_402" data-name="Path 402" d="M11.545,6c25.276-.082,44.446,6.389,44.446,7.573S50.983,50.751,11.545,50.1-32.488,15.3-32.488,13.572-13.731,6.081,11.545,6Z" transform="translate(32.488 -5.999)" fill="#302c3b"/>
          <path id="Path_403" data-name="Path 403" d="M.359,1A97.184,97.184,0,0,1,33,6.467S24.4,19.536.359,19.033-31.767,6.467-31.767,6.467A94.041,94.041,0,0,1,.359,1Z" transform="translate(43.714 25.073)" fill="#bf4e4e"/>
        </g>
        <path id="Path_341" data-name="Path 341" d="M14.14,31.365C34.451,15.706,64.541,7.827,81.48,12.627c3.568,1.007,5.7,14.276,2.6,13.807-23.722-3.534-49.639.64-69.31,13.87C12.136,42.093,11.08,33.706,14.14,31.365Z" transform="translate(25.11 35.709)" fill="#917524"/>
        <path id="Path_342" data-name="Path 342" d="M108.171,31.354C87.85,15.709,57.764,7.826,40.83,12.626c-3.577,1.017-5.7,14.271-2.615,13.812,23.722-3.543,49.644.64,69.32,13.87C110.169,42.081,111.225,33.7,108.171,31.354Z" transform="translate(140.315 35.705)" fill="#917524"/>
        <g id="_81" data-name="81" transform="translate(110.213 51.673) rotate(-16)">
          <path id="path3393" d="M23.757,92.579c-5.678,2.728-11.093,3.24-12.11,1.126L.165,11.221C-.848,9.115,2.918,5.18,8.6,2.434h0C14.274-.3,19.715-.812,20.72,1.308L32.2,83.782c1.009,2.1-2.772,6.055-8.439,8.8Z" transform="translate(87.947 148.016)" fill="#1b1b1b"/>
          <path id="Exclusion_1" data-name="Exclusion 1" d="M79.314,158.624A79.332,79.332,0,0,1,48.448,6.228,79.335,79.335,0,0,1,110.18,152.4,78.851,78.851,0,0,1,79.314,158.624Zm0-150.558a71.246,71.246,0,1,0,71.259,71.246A71.329,71.329,0,0,0,79.31,8.066Z" transform="translate(0 0)" fill="#1b1b1b"/>
          <path id="Exclusion_2" data-name="Exclusion 2" d="M72.163,144.319A72.178,72.178,0,0,1,44.08,5.666a72.18,72.18,0,0,1,56.167,132.986A71.736,71.736,0,0,1,72.163,144.319Zm.006-136.4A64.234,64.234,0,1,0,136.4,72.158,64.309,64.309,0,0,0,72.169,7.924Z" transform="translate(7.128 7.133)" fill="#292929"/>
          <g id="Group_502" data-name="Group 502" transform="translate(15.062 15.06)" opacity="0.44">
            <g id="g3401" transform="translate(0 0)">
              <path id="path3399" d="M128.473,64.234A64.236,64.236,0,1,1,64.233,0,64.232,64.232,0,0,1,128.473,64.234Z" transform="translate(0 0)" fill="#fff"/>
              <ellipse id="circle3403" cx="56.307" cy="56.309" rx="56.307" ry="56.309" transform="translate(7.925 7.925)" fill="#b9d5de"/>
              <path id="path3405" d="M25.375,0A56.3,56.3,0,0,0,56.307,103.348c.548,0,1.1-.074,1.648-.089C2.722,75.881,16.365,19.031,25.375,0Z" transform="translate(7.925 17.073)" fill="#eaf0f2"/>
            </g>
          </g>
        </g>
        <g id="Group_509" data-name="Group 509" transform="translate(316.613 253.091) rotate(159)">
          <path id="Path_347" data-name="Path 347" d="M30.5,2.183C5.794-4.206-5.048,21.37,2.226,44.128c2.605,8.14,17.486,6.687,17.486,6.687s15.473,7.907,21.121,7.469c3.086-.244,15.876-4.876,15.876-4.876L54.339,35.593s-.729-7.453-3.007-10.221A12.271,12.271,0,0,0,49.02,13.538,11.832,11.832,0,0,0,30.5,2.183Z" transform="translate(2.227 2.614)" fill="#fff"/>
          <path id="Path_348" data-name="Path 348" d="M32.21,2.489C5.551-4.533-4.876,24.4,2.113,45.892c2.894,8.906,36.346,17.843,42.036,17.7S59.8,60.571,60.042,52.114a35.434,35.434,0,0,0-2.764-14.8s.665-6.84-1.8-9.879a13.714,13.714,0,0,0-2.493-13.006C54.439,2.605,40.92-3.865,32.21,2.489Zm4.938,8.2L34.189,6.938C46.37.229,54.9,15.99,42.022,21.748a12.019,12.019,0,0,0,7.54-3.1c3.775,6.468,3.365,10.665-4.117,16.293,5.108-1.3,6.984-4.1,6.984-4.1,3.692,8.172,1.546,11.6-5.251,15.863,5.107-1.861,7.362-3.773,7.5-4.206-.066-1.681,2.467,5.53.8,10.2a6.23,6.23,0,0,1-.534,1.062c-1.937,3.711-8.515,5.267-12.925,4.831-3.3-.326-19.1-4.91-19.1-4.91S8.413,49.717,6.711,43.506C-.921,15.668,16.669-.888,37.148,10.686Z" transform="translate(0 0)" fill="#99a8ae"/>
        </g>
      </g>
    </g>
  </g>
</svg>
