<svg width="45" height="45" viewBox="0 0 45 45" fill="none" xmlns="http://www.w3.org/2000/svg">
<rect width="45" height="45" fill="white"/>
<path d="M22.5 45C34.9264 45 45 34.9264 45 22.5C45 10.0736 34.9264 0 22.5 0C10.0736 0 0 10.0736 0 22.5C0 34.9264 10.0736 45 22.5 45Z" fill="#0E0E0E"/>
<path d="M22.5756 35.6907C29.8407 35.6907 35.7303 29.801 35.7303 22.5356C35.7303 15.2703 29.8407 9.38062 22.5756 9.38062C15.3104 9.38062 9.4209 15.2703 9.4209 22.5356C9.4209 29.801 15.3104 35.6907 22.5756 35.6907Z" fill="url(#paint0_linear)"/>
<path d="M30.9714 19.9797C30.9714 20.6955 30.7591 21.3952 30.3615 21.9904C29.9638 22.5855 29.3986 23.0494 28.7373 23.3233C28.076 23.5972 27.3484 23.6689 26.6463 23.5293C25.9443 23.3896 25.2995 23.0449 24.7933 22.5388C24.2872 22.0327 23.9425 21.3878 23.8029 20.6858C23.6633 19.9837 23.735 19.2561 24.0089 18.5948C24.2829 17.9335 24.7467 17.3683 25.3419 16.9707C25.9371 16.573 26.6368 16.3608 27.3526 16.3608C28.3123 16.3611 29.2326 16.7425 29.9112 17.4211C30.5898 18.0997 30.9711 19.02 30.9714 19.9797Z" fill="white"/>
<path d="M27.3527 21.6942C28.2995 21.6942 29.067 20.9267 29.067 19.9799C29.067 19.0331 28.2995 18.2656 27.3527 18.2656C26.4059 18.2656 25.6384 19.0331 25.6384 19.9799C25.6384 20.9267 26.4059 21.6942 27.3527 21.6942Z" fill="#302C3B"/>
<path d="M20.0824 19.9315C20.0824 20.5422 19.9013 21.1391 19.562 21.6468C19.2227 22.1545 18.7405 22.5502 18.1764 22.7838C17.6122 23.0175 16.9914 23.0786 16.3926 22.9594C15.7937 22.8403 15.2436 22.5462 14.8118 22.1144C14.3801 21.6826 14.0861 21.1324 13.967 20.5335C13.8479 19.9346 13.9091 19.3138 14.1428 18.7497C14.3766 18.1856 14.7723 17.7034 15.2801 17.3642C15.7878 17.0251 16.3848 16.844 16.9954 16.8441C17.8141 16.8444 18.5992 17.1698 19.178 17.7488C19.7569 18.3277 20.0822 19.1128 20.0824 19.9315Z" fill="white"/>
<path d="M16.9954 21.3942C17.803 21.3942 18.4578 20.7395 18.4578 19.9317C18.4578 19.124 17.803 18.4692 16.9954 18.4692C16.1877 18.4692 15.533 19.124 15.533 19.9317C15.533 20.7395 16.1877 21.3942 16.9954 21.3942Z" fill="#302C3B"/>
<path d="M22.5813 26.7757C24.8028 26.7685 26.4877 27.3372 26.4877 27.4413C26.4877 27.5454 26.0475 30.7089 22.5813 30.6517C19.115 30.5945 18.7112 27.5931 18.7112 27.4412C18.7112 27.2893 20.3597 26.7828 22.5813 26.7757Z" fill="#302C3B"/>
<path d="M22.5848 29.0671C23.5615 29.0621 24.5319 29.2246 25.4536 29.5476C25.4536 29.5476 24.6978 30.6963 22.5848 30.6521C20.4718 30.6079 19.7612 29.5476 19.7612 29.5476C20.6673 29.2244 21.6228 29.0618 22.5848 29.0671Z" fill="#BF4E4E"/>
<path d="M12.8706 15.2759C14.6557 13.8996 17.3003 13.2071 18.7891 13.629C19.1027 13.7175 19.2901 14.8837 19.0176 14.8425C16.9327 14.5319 14.6548 14.8987 12.9259 16.0615C12.6944 16.2188 12.6016 15.4816 12.8706 15.2759Z" fill="#917524"/>
<path d="M31.2605 15.2744C29.4744 13.8993 26.8302 13.2065 25.3418 13.6283C25.0275 13.7177 24.8409 14.8826 25.112 14.8423C27.1969 14.5309 29.4752 14.8985 31.2046 16.0613C31.4361 16.2172 31.5289 15.4806 31.2605 15.2744Z" fill="#917524"/>
<path d="M34.3737 31.5434C33.9601 31.9114 33.515 32.0859 33.3779 31.9319L30.4095 25.2413C30.2729 25.088 30.4958 24.6643 30.9093 24.2946C31.3225 23.9262 31.7697 23.7511 31.906 23.9059L34.8739 30.5956C35.01 30.7486 34.7864 31.1744 34.3741 31.5436L34.3737 31.5434Z" fill="#1B1B1B"/>
<path d="M29.6513 25.4025C28.105 25.845 26.4533 25.7394 24.976 25.1035C23.4987 24.4676 22.2867 23.3405 21.5453 21.9132C20.8039 20.486 20.5787 18.8463 20.9079 17.272C21.2371 15.6977 22.1004 14.2856 23.3516 13.275C24.7909 12.1138 26.6326 11.5719 28.4714 11.7686C29.3819 11.8659 30.2643 12.1417 31.0683 12.5801C31.8722 13.0185 32.5819 13.6109 33.1569 14.3236C33.7318 15.0363 34.1608 15.8553 34.4193 16.7337C34.6778 17.6122 34.7607 18.533 34.6633 19.4435C34.5659 20.354 34.2902 21.2364 33.8518 22.0403C33.4134 22.8442 32.8209 23.5539 32.1082 24.1289C31.3832 24.7143 30.5475 25.1475 29.6513 25.4025ZM26.0039 12.6825C24.8135 13.0241 23.7511 13.711 22.9511 14.6563C22.151 15.6016 21.6493 16.763 21.5093 17.9934C21.3692 19.2239 21.5972 20.4683 22.1644 21.5692C22.7316 22.6702 23.6124 23.5782 24.6956 24.1785C25.7789 24.7788 27.0157 25.0444 28.2499 24.9418C29.4841 24.8391 30.6601 24.3728 31.6293 23.6019C32.5984 22.8309 33.3172 21.7898 33.6948 20.6103C34.0723 19.4309 34.0916 18.1659 33.7502 16.9755C33.2907 15.3799 32.217 14.0318 30.7646 13.227C29.3123 12.4222 27.6 12.2264 26.0035 12.6826L26.0039 12.6825Z" fill="#1B1B1B"/>
<path d="M29.4755 24.797C28.0686 25.1996 26.5659 25.1035 25.2218 24.5249C23.8777 23.9464 22.775 22.921 22.1005 21.6224C21.4259 20.3238 21.221 18.832 21.5205 17.3997C21.8201 15.9674 22.6055 14.6826 23.7439 13.7631C25.0533 12.7066 26.7289 12.2136 28.4018 12.3925C30.0748 12.5714 31.6082 13.4075 32.6647 14.717C33.7212 16.0265 34.2143 17.702 34.0354 19.375C33.8565 21.048 33.0204 22.5814 31.7109 23.6379C31.0513 24.1706 30.291 24.5649 29.4755 24.797ZM26.1716 13.273C25.0982 13.5807 24.1402 14.1998 23.4187 15.052C22.6972 15.9042 22.2447 16.9511 22.1182 18.0605C21.9917 19.1699 22.1971 20.2919 22.7083 21.2846C23.2195 22.2773 24.0136 23.0961 24.9901 23.6375C25.9667 24.1789 27.0818 24.4185 28.1946 24.3261C29.3073 24.2337 30.3677 23.8135 31.2416 23.1184C32.1155 22.4234 32.7636 21.4849 33.1041 20.4215C33.4446 19.3581 33.4621 18.2176 33.1544 17.1442C32.7402 15.706 31.7724 14.4907 30.4634 13.7651C29.1543 13.0394 27.6109 12.8626 26.1717 13.2734L26.1716 13.273Z" fill="#292929"/>
<g opacity="0.44">
<g opacity="0.44">
<path opacity="0.44" d="M33.1551 17.1445C33.4629 18.2178 33.4455 19.3583 33.1051 20.4218C32.7648 21.4853 32.1167 22.4239 31.2428 23.1191C30.369 23.8142 29.3086 24.2346 28.1958 24.3271C27.0831 24.4197 25.9678 24.1801 24.9912 23.6388C24.0146 23.0975 23.2204 22.2788 22.7091 21.2861C22.1977 20.2934 21.9923 19.1714 22.1186 18.062C22.2449 16.9526 22.6974 15.9055 23.4189 15.0532C24.1403 14.2009 25.0982 13.5817 26.1716 13.2739C26.8843 13.0694 27.6302 13.0074 28.3669 13.0912C29.1036 13.1751 29.8165 13.4033 30.465 13.7627C31.1135 14.1221 31.6849 14.6058 32.1464 15.186C32.608 15.7663 32.9507 16.4317 33.1551 17.1445Z" fill="white"/>
<path opacity="0.44" d="M29.0916 23.4579C31.7189 22.7046 33.238 19.9639 32.4846 17.3365C31.7312 14.7091 28.9907 13.1899 26.3634 13.9433C23.736 14.6966 22.2169 17.4373 22.9703 20.0647C23.7237 22.6921 26.4643 24.2113 29.0916 23.4579Z" fill="#B9D5DE"/>
<path opacity="0.44" d="M23.9717 15.4658C23.2775 16.2732 22.8623 17.2831 22.7879 18.3454C22.7134 19.4076 22.9835 20.4656 23.5582 21.362C24.1329 22.2585 24.9815 22.9457 25.9778 23.3214C26.9742 23.6972 28.0652 23.7415 29.0887 23.4478C29.135 23.4346 29.1799 23.4149 29.2258 23.4004C23.8961 22.4254 23.6715 17.2919 23.9717 15.4658Z" fill="#EAF0F2"/>
</g>
</g>
<path d="M34.4119 32.2619C36.6404 32.008 36.7244 29.5679 35.4107 27.9297C34.9406 27.3438 33.7653 27.9317 33.7653 27.9317C33.7653 27.9317 32.2467 27.7703 31.797 27.9841C31.5515 28.1013 30.6479 28.8843 30.6479 28.8843L31.4035 30.2714C31.4035 30.2714 31.6981 30.86 31.9722 31.0153C31.9807 31.2008 32.037 31.3809 32.1355 31.5383C32.234 31.6956 32.3715 31.8249 32.5347 31.9135C32.5798 32.1115 32.6819 32.2918 32.8283 32.4324C32.9748 32.573 33.1592 32.6677 33.3588 32.7047C33.5584 32.7418 33.7645 32.7196 33.9516 32.6409C34.1388 32.5622 34.2988 32.4305 34.4119 32.2619Z" fill="white"/>
<path d="M34.5269 32.435C36.9356 32.1715 36.8798 29.4691 35.6294 27.9257C35.1114 27.2861 32.0851 27.6065 31.6227 27.7974C31.1604 27.9884 30.4337 28.5383 30.6802 29.2398C30.8278 29.6609 31.0641 30.0453 31.3732 30.3671C31.3732 30.3671 31.534 30.9493 31.832 31.121C31.8426 31.3243 31.9045 31.5215 32.0119 31.6944C32.1193 31.8673 32.2687 32.0101 32.4462 32.1097C32.6993 33.1257 34.0124 33.2307 34.5269 32.435ZM33.8635 31.9177L34.2244 32.1323C33.4363 33.0665 32.2399 32.0419 33.1152 31.1638C32.8896 31.2621 32.7053 31.436 32.5942 31.6557C32.0807 31.2439 31.9822 30.8866 32.4188 30.1891C32.0406 30.4567 31.9749 30.7455 31.9749 30.7455C31.4146 30.1913 31.4827 29.8424 31.9061 29.2785C31.5457 29.5921 31.4209 29.82 31.4232 29.8599C31.4816 29.9957 31.0466 29.4838 31.0363 29.0481C31.0364 29.0132 31.0399 28.9784 31.0467 28.9442C31.0887 28.5787 31.5794 28.2438 31.955 28.1407C32.2361 28.0635 33.6769 27.9419 33.6769 27.9419C33.6769 27.9419 34.992 27.8103 35.3273 28.2663C36.8303 30.3101 35.9085 32.2226 33.8636 31.918L33.8635 31.9177Z" fill="#99A8AE"/>
<defs>
<linearGradient id="paint0_linear" x1="22.5756" y1="35.6907" x2="22.5756" y2="9.38062" gradientUnits="userSpaceOnUse">
<stop stop-color="#FFA027"/>
<stop offset="0.272" stop-color="#FFC151"/>
<stop offset="0.763" stop-color="#FFC93F"/>
<stop offset="1" stop-color="#FFE261"/>
</linearGradient>
</defs>
</svg>
